<?xml version="1.0" encoding="iso-8859-1"?>
<!-- Generator: Adobe Illustrator 17.1.0, SVG Export Plug-In . SVG Version: 6.00 Build 0)  -->
<!DOCTYPE svg PUBLIC "-//W3C//DTD SVG 1.1//EN" "http://www.w3.org/Graphics/SVG/1.1/DTD/svg11.dtd">
<svg version="1.1" id="Capa_1" xmlns="http://www.w3.org/2000/svg" xmlns:xlink="http://www.w3.org/1999/xlink" x="0px" y="0px"
	 viewBox="0 0 470.926 470.926" style="enable-background:new 0 0 470.926 470.926;" xml:space="preserve">
<path id="XMLID_1873_" d="M86.845,147.384c-3.709-25.884,1.474-43.774,17.329-59.824c11.792-11.937,28.515-19.063,44.731-19.063
	h25.399c7.82,0,19.234-10.649,22.804-24.902l0.713-2.838c1.212-4.821,6.104-7.749,10.922-6.535
	c4.821,1.211,7.747,6.102,6.535,10.922l-0.711,2.831c-5.41,21.599-23.097,38.522-40.263,38.522h-25.399
	c-11.336,0-23.569,5.255-31.926,13.714c-11.911,12.057-15.25,24.15-12.316,44.62l11.595,80.878c0.706,4.92-2.711,9.48-7.631,10.187
	c-0.433,0.062-0.863,0.092-1.289,0.092c-4.405,0-8.254-3.236-8.897-7.724L86.845,147.384z M162.244,178.888
	c-0.449-8.262-0.71-16.852-0.663-25.649c0.026-4.97-3.981-9.021-8.952-9.048c-4.974,0-9.021,3.981-9.048,8.951
	c-0.127,23.771,1.98,46.688,3.831,63.999c0.494,4.617,4.397,8.044,8.938,8.044c0.32,0,0.643-0.018,0.968-0.052
	c4.942-0.528,8.521-4.964,7.993-9.906c-0.492-4.599-0.985-9.428-1.445-14.449c7.805,3.155,17.188,4.917,27.167,4.917
	c18.756,0,35.398-6.219,43.433-16.23c3.111-3.876,2.491-9.541-1.386-12.652c-3.876-3.11-9.541-2.491-12.652,1.387
	c-3.671,4.573-14.435,9.496-29.395,9.496C176.823,187.695,166.399,183.254,162.244,178.888z M297.831,205.695
	c18.757,0,35.399-6.22,43.432-16.23c1.162-1.448,1.848-3.221,1.963-5.073c0.132-2.12,0.278-4.266,0.425-6.428
	c0.55-8.099,1.118-16.474,1.074-24.82c-0.027-4.955-4.051-8.952-8.999-8.952c-0.016,0-0.033,0-0.049,0
	c-4.97,0.026-8.978,4.078-8.952,9.048c0.042,7.688-0.505,15.729-1.033,23.506c-0.073,1.075-0.146,2.147-0.217,3.214
	c-4.741,3.992-14.596,7.736-27.644,7.736c-14.959,0-25.724-4.923-29.395-9.496c-3.11-3.877-8.775-4.498-12.652-1.387
	c-3.876,3.111-4.497,8.776-1.386,12.652C262.433,199.476,279.075,205.695,297.831,205.695z M64.774,229.472
	c-1.255,4.81,1.627,9.726,6.437,10.98c0.762,0.198,1.525,0.293,2.278,0.293c3.997,0,7.646-2.683,8.702-6.73
	c4.948-18.972-4.424-42.19-22.841-56.503c-1.017-0.779-2.074-1.508-3.162-2.188l2.227-9.214c1.168-4.831-1.802-9.694-6.634-10.862
	c-4.83-1.174-9.695,1.802-10.862,6.634l-1.568,6.486c-6.341-1.7-12.669-2.688-18.057-3.53c-0.69-0.107-1.375-0.215-2.043-0.32
	l7.887-49.423c0.686,0.109,1.387,0.219,2.103,0.33c9.492,1.482,22.491,3.514,29.888,9.18c3.945,3.022,9.594,2.274,12.618-1.671
	c3.023-3.946,2.274-9.595-1.671-12.618c-11.035-8.454-26.653-10.894-38.056-12.675c-3.913-0.611-7.609-1.188-9.678-1.816
	c-2.488-0.757-5.182-0.398-7.387,0.98s-3.706,3.645-4.116,6.213L0.113,170.215c-0.708,4.44,1.969,8.723,6.272,10.029
	c3.275,0.995,7.378,1.636,12.13,2.378c9.492,1.482,22.491,3.514,29.838,9.142C60.799,201.435,67.858,217.646,64.774,229.472z
	 M273.422,47.968c5.412,21.604,23.099,38.528,40.265,38.528h25.399c11.336,0,23.569,5.255,31.926,13.714
	c11.911,12.057,15.25,24.149,12.317,44.619l-5.782,40.314c-0.706,4.92,2.711,9.48,7.631,10.187c0.434,0.062,0.864,0.092,1.289,0.092
	c4.404,0,8.254-3.236,8.897-7.724l5.782-40.315c3.708-25.884-1.475-43.774-17.331-59.823
	c-11.792-11.937-28.515-19.063-44.731-19.063h-25.399c-7.82,0-19.234-10.65-22.806-24.906l-0.71-2.831
	c-1.21-4.821-6.102-7.75-10.92-6.539c-4.821,1.21-7.749,6.099-6.539,10.92L273.422,47.968z M322.558,322.727
	c-4.969,0.115-8.904,4.236-8.789,9.206c0.454,19.579,2.521,37.742,6.319,55.528c0.903,4.229,4.637,7.123,8.793,7.123
	c0.623,0,1.255-0.065,1.888-0.2c4.861-1.038,7.96-5.82,6.922-10.681c-3.561-16.675-5.5-33.746-5.927-52.188
	C331.649,326.546,327.511,322.592,322.558,322.727z M358.3,361.214c-4.748-1.472-9.789,1.188-11.258,5.937
	c-1.47,4.749,1.188,9.789,5.937,11.259c20.84,6.449,25.351,12.641,25.351,13.827c0,1.543-6.249,9.336-35.115,16.543
	c-26.35,6.578-61.531,10.201-99.061,10.201c-37.529,0-72.709-3.623-99.06-10.201c-28.867-7.207-35.115-15-35.115-16.543
	c0-1.188,4.511-7.378,25.35-13.827c4.749-1.47,7.406-6.51,5.937-11.259c-1.47-4.749-6.512-7.409-11.258-5.937
	c-25.234,7.809-38.028,18.246-38.028,31.022c0,14.488,16.404,25.93,48.755,34.007c27.735,6.924,64.463,10.737,103.42,10.737
	c38.957,0,75.686-3.813,103.421-10.737c32.352-8.077,48.755-19.519,48.755-34.007C396.33,379.461,383.535,369.023,358.3,361.214z
	 M105.478,334.434c0.498-0.07,0.993-0.142,1.488-0.214l321.884-46.944c4.918-0.717,8.324-5.285,7.607-10.204
	c-0.717-4.919-5.289-8.311-10.205-7.607l-20.668,3.015l-0.108-5.131c-0.104-4.969-4.21-8.868-9.188-8.809
	c-4.969,0.104-8.913,4.218-8.809,9.188l0.155,7.37l-55.268,8.06l-0.108-5.131c-0.103-4.905-4.112-8.811-8.994-8.811
	c-0.064,0-0.129,0.001-0.193,0.002c-4.969,0.104-8.913,4.218-8.809,9.188l0.155,7.37l-55.268,8.06l-0.108-5.13
	c-0.104-4.905-4.112-8.811-8.995-8.811c-0.064,0-0.128,0.001-0.193,0.002c-4.969,0.104-8.913,4.218-8.809,9.188l0.155,7.369
	l-55.269,8.061l-0.108-5.13c-0.104-4.97-4.203-8.892-9.188-8.809c-4.969,0.104-8.913,4.218-8.809,9.188l0.155,7.368l-55.268,8.061
	l-0.108-5.132c-0.105-4.971-4.229-8.884-9.188-8.809c-4.97,0.104-8.913,4.218-8.809,9.188l0.151,7.177
	c-25.895,2.631-36.583-2.216-43.509-18.202c-5.916-13.654-11.417-40.873-5.887-54.372c1.699-4.147,3.844-5.415,5.31-6.008
	c4.608-1.864,6.833-7.11,4.969-11.719c-1.864-4.607-7.111-6.834-11.718-4.969c-6.834,2.765-12.097,8.253-15.218,15.872
	c-8.661,21.144,0.321,55.181,6.027,68.352c10.291,23.754,28.848,29.715,48.633,29.715c7.131,0,14.428-0.775,21.547-1.771
	C105.107,334.492,105.294,334.466,105.478,334.434z M459.666,248.131c-1.147-2.715-2.23-5.28-3.1-7.508
	c-8.91-22.811-25.726-34.756-44.984-31.945l-347.22,50.638c-4.918,0.718-8.324,5.286-7.607,10.205s5.293,8.319,10.205,7.607
	l347.22-50.638c14.975-2.193,22.906,13.736,25.62,20.681c0.959,2.457,2.089,5.132,3.285,7.964
	c4.733,11.207,11.886,28.144,9.319,36.806c-2.755,9.288-15.729,13.449-29.463,17.855c-17.47,5.604-37.271,11.957-40.6,32.226
	c-0.806,4.905,2.517,9.534,7.422,10.34c0.494,0.081,0.985,0.12,1.47,0.12c4.329,0,8.145-3.131,8.87-7.542
	c1.441-8.775,11.667-12.656,28.336-18.004c16.762-5.377,35.761-11.472,41.222-29.878
	C474.061,282.213,466.079,263.315,459.666,248.131z M155.829,346.657c-0.924,12.822-2.629,24.941-5.214,37.047
	c-1.038,4.861,2.062,9.643,6.923,10.681c0.633,0.135,1.265,0.2,1.888,0.2c4.156,0,7.891-2.896,8.793-7.123
	c2.759-12.927,4.58-25.851,5.563-39.512c0.357-4.957-3.372-9.266-8.33-9.623C160.483,337.967,156.186,341.7,155.829,346.657z
	 M235.153,358.216v3.744c0,4.971,4.029,9,9,9s9-4.029,9-9v-3.744c0-4.971-4.029-9-9-9S235.153,353.245,235.153,358.216z"/>
<g>
</g>
<g>
</g>
<g>
</g>
<g>
</g>
<g>
</g>
<g>
</g>
<g>
</g>
<g>
</g>
<g>
</g>
<g>
</g>
<g>
</g>
<g>
</g>
<g>
</g>
<g>
</g>
<g>
</g>
</svg>
