<?xml version="1.0" encoding="iso-8859-1"?>
<!-- Generator: Adobe Illustrator 17.1.0, SVG Export Plug-In . SVG Version: 6.00 Build 0)  -->
<!DOCTYPE svg PUBLIC "-//W3C//DTD SVG 1.1//EN" "http://www.w3.org/Graphics/SVG/1.1/DTD/svg11.dtd">
<svg version="1.1" id="Capa_1" xmlns="http://www.w3.org/2000/svg" xmlns:xlink="http://www.w3.org/1999/xlink" x="0px" y="0px"
	 viewBox="0 0 512 512" style="enable-background:new 0 0 512 512;" xml:space="preserve">
<g>
	<path d="M504,412h-16v-40c4.418,0,8-3.582,8-8s-3.582-8-8-8V199.695c9.555-5.542,16-15.877,16-27.695v-64.037
		C504,94.75,493.25,84,480.037,84H31.963C18.75,84,8,94.75,8,107.963V172c0,11.818,6.445,22.153,16,27.695V356c-4.418,0-8,3.582-8,8
		s3.582,8,8,8v40H8c-4.418,0-8,3.582-8,8s3.582,8,8,8h496c4.418,0,8-3.582,8-8S508.418,412,504,412z M376,356v-40h40v40H376z
		 M264,356v-96h96v96H264z M152,356v-40h96v40H152z M96,356v-96h40v96H96z M248,260v40h-96v-40H248z M416,260v40h-40v-40H416z
		 M472,260v40h-40v-40H472z M432,316h40v40h-40V316z M472,188c-8.822,0-16-7.178-16-16h32C488,180.822,480.822,188,472,188z M24,172
		h32c0,8.822-7.178,16-16,16S24,180.822,24,172z M408,156v-56h32v56H408z M392,156h-32v-56h32V156z M344,156h-32v-56h32V156z
		 M296,156h-32v-56h32V156z M248,156h-32v-56h32V156z M200,156h-32v-56h32V156z M152,156h-32v-56h32V156z M104,156H72v-56h32V156z
		 M104,172c0,8.822-7.178,16-16,16s-16-7.178-16-16H104z M152,172c0,8.822-7.178,16-16,16s-16-7.178-16-16H152z M200,172
		c0,8.822-7.178,16-16,16s-16-7.178-16-16H200z M248,172c0,8.822-7.178,16-16,16s-16-7.178-16-16H248z M296,172
		c0,8.822-7.178,16-16,16s-16-7.178-16-16H296z M344,172c0,8.822-7.178,16-16,16s-16-7.178-16-16H344z M392,172
		c0,8.822-7.178,16-16,16s-16-7.178-16-16H392z M440,172c0,8.822-7.178,16-16,16s-16-7.178-16-16H440z M488,107.963V156h-32v-56
		h24.037C484.428,100,488,103.572,488,107.963z M31.963,100H56v56H24v-48.037C24,103.572,27.572,100,31.963,100z M64,193.132
		C69.868,199.789,78.449,204,88,204s18.132-4.211,24-10.868c5.868,6.657,14.449,10.868,24,10.868s18.132-4.211,24-10.868
		c5.868,6.657,14.449,10.868,24,10.868s18.132-4.211,24-10.868c5.868,6.657,14.449,10.868,24,10.868s18.132-4.211,24-10.868
		c5.868,6.657,14.449,10.868,24,10.868s18.132-4.211,24-10.868c5.868,6.657,14.449,10.868,24,10.868s18.132-4.211,24-10.868
		c5.868,6.657,14.449,10.868,24,10.868s18.132-4.211,24-10.868c5.868,6.657,14.449,10.868,24,10.868s18.132-4.211,24-10.868
		c5.868,6.657,14.449,10.868,24,10.868v40H40v-40C49.551,204,58.132,199.789,64,193.132z M40,260h40v96H40V260z M40,372h432v40H40
		V372z"/>
	<path d="M292,308c-11.028,0-20,8.972-20,20s8.972,20,20,20s20-8.972,20-20S303.028,308,292,308z M292,332c-2.206,0-4-1.794-4-4
		s1.794-4,4-4s4,1.794,4,4S294.206,332,292,332z"/>
	<path d="M312,328c0,11.028,8.972,20,20,20s20-8.972,20-20s-8.972-20-20-20S312,316.972,312,328z M332,324c2.206,0,4,1.794,4,4
		s-1.794,4-4,4s-4-1.794-4-4S329.794,324,332,324z"/>
	<path d="M312,288c0-11.028-8.972-20-20-20s-20,8.972-20,20s8.972,20,20,20S312,299.028,312,288z M292,292c-2.206,0-4-1.794-4-4
		s1.794-4,4-4s4,1.794,4,4S294.206,292,292,292z"/>
	<path d="M352,288c0-11.028-8.972-20-20-20s-20,8.972-20,20s8.972,20,20,20S352,299.028,352,288z M332,292c-2.206,0-4-1.794-4-4
		s1.794-4,4-4s4,1.794,4,4S334.206,292,332,292z"/>
	<path d="M176,292c4.418,0,8-3.582,8-8v-8c0-4.418-3.582-8-8-8s-8,3.582-8,8v8C168,288.418,171.582,292,176,292z"/>
	<path d="M200,292c4.418,0,8-3.582,8-8v-8c0-4.418-3.582-8-8-8s-8,3.582-8,8v8C192,288.418,195.582,292,200,292z"/>
	<path d="M224,292c4.418,0,8-3.582,8-8v-8c0-4.418-3.582-8-8-8s-8,3.582-8,8v8C216,288.418,219.582,292,224,292z"/>
	<path d="M176,324c-4.418,0-8,3.582-8,8v8c0,4.418,3.582,8,8,8s8-3.582,8-8v-8C184,327.582,180.418,324,176,324z"/>
	<path d="M200,324c-4.418,0-8,3.582-8,8v8c0,4.418,3.582,8,8,8s8-3.582,8-8v-8C208,327.582,204.418,324,200,324z"/>
	<path d="M224,324c-4.418,0-8,3.582-8,8v8c0,4.418,3.582,8,8,8s8-3.582,8-8v-8C232,327.582,228.418,324,224,324z"/>
	<path d="M120,276h-8c-4.418,0-8,3.582-8,8s3.582,8,8,8h8c4.418,0,8-3.582,8-8S124.418,276,120,276z"/>
	<path d="M120,300h-8c-4.418,0-8,3.582-8,8s3.582,8,8,8h8c4.418,0,8-3.582,8-8S124.418,300,120,300z"/>
	<path d="M120,324h-8c-4.418,0-8,3.582-8,8s3.582,8,8,8h8c4.418,0,8-3.582,8-8S124.418,324,120,324z"/>
	<path d="M396,292c6.617,0,12-5.383,12-12s-5.383-12-12-12s-12,5.383-12,12S389.383,292,396,292z M396,276c2.206,0,4,1.794,4,4
		s-1.794,4-4,4s-4-1.794-4-4S393.794,276,396,276z"/>
	<path d="M452,324c-6.617,0-12,5.383-12,12s5.383,12,12,12s12-5.383,12-12S458.617,324,452,324z M452,340c-2.206,0-4-1.794-4-4
		s1.794-4,4-4s4,1.794,4,4S454.206,340,452,340z"/>
</g>
<g>
</g>
<g>
</g>
<g>
</g>
<g>
</g>
<g>
</g>
<g>
</g>
<g>
</g>
<g>
</g>
<g>
</g>
<g>
</g>
<g>
</g>
<g>
</g>
<g>
</g>
<g>
</g>
<g>
</g>
</svg>
